<?xml version="1.0" encoding="UTF-8" standalone="no"?>
<!-- Created with Inkscape (http://www.inkscape.org/) -->

<svg
   xmlns:dc="http://purl.org/dc/elements/1.1/"
   xmlns:cc="http://creativecommons.org/ns#"
   xmlns:rdf="http://www.w3.org/1999/02/22-rdf-syntax-ns#"
   xmlns:svg="http://www.w3.org/2000/svg"
   xmlns="http://www.w3.org/2000/svg"
   xmlns:sodipodi="http://sodipodi.sourceforge.net/DTD/sodipodi-0.dtd"
   xmlns:inkscape="http://www.inkscape.org/namespaces/inkscape"
   width="24.433651mm"
   height="28.982811mm"
   viewBox="0 0 24.433651 28.982811"
   version="1.1"
   id="svg1747"
   inkscape:version="0.92.3 (2405546, 2018-03-11)"
   sodipodi:docname="PHK_mire.svg">
  <defs
     id="defs1741" />
  <sodipodi:namedview
     id="base"
     pagecolor="#ffffff"
     bordercolor="#666666"
     borderopacity="1.0"
     inkscape:pageopacity="0.0"
     inkscape:pageshadow="2"
     inkscape:zoom="5.6"
     inkscape:cx="63.825464"
     inkscape:cy="47.328534"
     inkscape:document-units="mm"
     inkscape:current-layer="layer1"
     showgrid="false"
     inkscape:window-width="1920"
     inkscape:window-height="1021"
     inkscape:window-x="0"
     inkscape:window-y="28"
     inkscape:window-maximized="1" />
  <metadata
     id="metadata1744">
    <rdf:RDF>
      <cc:Work
         rdf:about="">
        <dc:format>image/svg+xml</dc:format>
        <dc:type
           rdf:resource="http://purl.org/dc/dcmitype/StillImage" />
        <dc:title />
      </cc:Work>
    </rdf:RDF>
  </metadata>
  <g
     inkscape:label="Calque 1"
     inkscape:groupmode="layer"
     id="layer1"
     transform="translate(-86.056991,-72.353833)">
    <g
       transform="matrix(0.35277777,0,0,-0.35277777,110.21239,76.059058)"
       id="g504"
       inkscape:export-xdpi="96"
       inkscape:export-ydpi="96">
      <path
         inkscape:connector-curvature="0"
         id="path506"
         style="fill:#2b3542;fill-opacity:1;fill-rule:nonzero;stroke:none"
         d="m 0,0 c -0.04,0.032 -0.09,0.039 -0.132,0.068 -7.262,6.467 -16.797,10.435 -27.263,10.435 -6.505,0 -12.638,-1.56 -18.11,-4.264 -1.115,1.052 -2.607,1.707 -4.261,1.707 -3.437,0 -6.224,-2.786 -6.224,-6.224 0,-0.859 0.174,-1.678 0.489,-2.422 -7.964,-7.496 -12.971,-18.1 -12.971,-29.875 0,-22.651 18.427,-41.078 41.077,-41.078 9.649,0 18.483,3.4 25.498,8.993 -6.257,-4.091 -13.72,-6.49 -21.754,-6.49 -13.628,0 -25.653,6.849 -32.833,17.288 -4.385,5.977 -7.009,13.322 -7.009,21.287 0,0.301 0.016,0.598 0.024,0.897 -10e-4,0.119 -0.009,0.236 -0.009,0.354 0,0.544 0.04,1.026 0.1,1.474 0.707,9.359 5.008,17.718 11.513,23.737 0.658,-0.237 1.359,-0.389 2.099,-0.389 3.417,0 6.185,2.755 6.218,6.165 4.868,2.449 10.343,3.861 16.153,3.861 8.597,0 16.494,-3.031 22.701,-8.067 l -4.589,-5.769 c -4.946,4.031 -11.249,6.457 -18.112,6.457 -15.837,0 -28.72,-12.883 -28.72,-28.72 0,-7.435 2.863,-14.196 7.515,-19.301 -0.191,-0.581 -0.314,-1.19 -0.327,-1.83 0.019,-0.022 0.04,-0.043 0.059,-0.065 0,-0.04 -0.012,-0.078 -0.012,-0.119 0,-3.444 2.792,-6.236 6.237,-6.236 1.407,0 2.691,0.484 3.735,1.27 3.53,-1.553 7.416,-2.439 11.513,-2.439 6.974,0 13.371,2.502 18.352,6.651 l -0.066,0.067 c -4.426,-3.298 -9.925,-5.266 -15.898,-5.266 -4.403,0 -8.546,1.079 -12.198,2.959 0.493,0.893 0.798,1.903 0.798,2.994 0,3.444 -2.792,6.236 -6.236,6.236 -1.437,0 -2.743,-0.505 -3.798,-1.321 -3.127,4.285 -4.99,9.528 -4.99,15.211 0,3.508 0.703,6.853 1.975,9.907 3.485,8.786 12.05,15.023 22.061,15.023 5.693,0 10.921,-2.017 15.016,-5.37 l -4.47,-5.619 c -2.879,2.386 -6.523,3.879 -10.546,3.879 -9.17,0 -16.63,-7.461 -16.63,-16.631 0,-9.171 7.46,-16.632 16.63,-16.632 3.642,0 6.987,1.211 9.73,3.205 l -0.037,0.037 c -2.262,-1.333 -4.928,-2.114 -7.792,-2.114 -8.141,0 -14.74,6.219 -14.74,13.89 0,4.068 2.093,7.747 5.091,10.293 0.286,0.255 0.583,0.496 0.892,0.722 0.009,0.007 0.017,0.015 0.026,0.021 0.002,10e-4 0.002,0 0.003,10e-4 1.921,1.396 4.276,2.23 6.827,2.23 2.853,0 5.435,-1.07 7.463,-2.778 l -7.387,-9.286 c -0.719,-0.903 -0.569,-2.219 0.334,-2.936 0.385,-0.307 0.843,-0.455 1.3,-0.455 0.614,0 1.224,0.27 1.636,0.789 L 0.334,-2.936 C 1.053,-2.033 0.903,-0.718 0,0" />
    </g>
  </g>
</svg>
